<?xml version="1.0" encoding="utf-8"?>
<!-- Generator: Adobe Illustrator 26.5.0, SVG Export Plug-In . SVG Version: 6.00 Build 0)  -->
<svg version="1.1" id="logo" xmlns="http://www.w3.org/2000/svg" xmlns:xlink="http://www.w3.org/1999/xlink" x="0px" y="0px"
	 viewBox="0 0 1069.8 318.9" style="enable-background:new 0 0 1069.8 318.9;" xml:space="preserve">
<style type="text/css">
	.st0{fill:#A70584;}
	.st1{fill:#36B588;}
	.st2{fill:#FAD05B;}
</style>
<g>
	<rect x="103.6" y="178.5" class="st0" width="60" height="59.5"/>
	<rect x="103.4" y="97.8" class="st1" width="60" height="60"/>
	<rect x="23.4" y="177.8" class="st2" width="60" height="60"/>
	<path d="M342.5,94c0,41.4-33.3,74.6-76.2,74.6h-32.7v68.4h-49.8V19.4h82.4C309.2,19.4,342.5,52.7,342.5,94z M292.8,94
		c0-15.9-11.2-28-26.4-28h-32.7v56h32.7C281.5,122,292.8,109.9,292.8,94z"/>
	<path d="M516.1,77.3V237h-47.9v-15c-10.5,12.1-26.2,19.5-47.6,19.5c-41.8,0-76.3-36.7-76.3-84.3s34.5-84.3,76.3-84.3
		c21.4,0,37,7.3,47.6,19.5v-15L516.1,77.3z M468.2,157.2c0-23.9-16-38.9-38-38.9s-38,15-38,38.9s16,39,38,39
		S468.2,181.1,468.2,157.2z"/>
	<path d="M698,77.3l-54.2,153.8c-17.8,50.4-46,70.4-90.4,68.2v-44.4c22.2,0,32.7-7,39.6-26.3L530,77.3h52.3l35.2,97l29.8-97
		L698,77.3z"/>
	<path d="M875.3,94c0,41.4-33.3,74.6-76.2,74.6h-32.7v68.4h-49.8V19.4h82.4C842,19.4,875.3,52.7,875.3,94z M825.5,94
		c0-15.9-11.2-28-26.4-28h-32.7v56h32.7C814.3,122,825.5,109.9,825.5,94z"/>
	<path d="M881.5,159.3c0-46.3,36.7-82.1,82.4-82.1s82.4,35.8,82.4,82.1s-36.7,82.1-82.4,82.1S881.5,205.7,881.5,159.3z M999.7,159.3
		c0-22.1-15.5-36.7-35.8-36.7s-35.8,14.6-35.8,36.7s15.5,36.7,35.8,36.7S999.7,181.4,999.7,159.3z"/>
</g>
</svg>
