<svg xmlns="http://www.w3.org/2000/svg" viewBox="0 0 762 141" fill="currentColor">
  <path d="m 160.08203,139.06451 c -23.09593,-4.29853 -40.08487,-21.29156 -44.53392,-44.544643 -1.14115,-5.96427 -1.46608,-16.84069 -1.46608,-49.07455 V 4.0332866 h 9 9 V 46.944197 c 0,38.92745 0.17157,43.46216 1.8482,48.84919 7.05033,22.652763 31.47921,32.639963 52.4402,21.439023 6.43292,-3.43756 12.21451,-9.92979 16.04708,-18.019513 3.16452,-6.67961 3.16452,-6.67961 3.46282,-50.92961 l 0.29831,-44.2500004 h 8.49821 8.49821 l -0.29651,46.2500004 c -0.29517,46.04008 -0.30733,46.27723 -2.67836,52.250003 -5.11521,12.88554 -13.74985,23.26956 -24.61816,29.60581 -9.96869,5.81177 -25.35552,8.81346 -35.5,6.92541 z m 128.13086,-0.50281 c -13.32228,-3.03589 -25.6731,-11.14408 -31.86989,-20.92226 -2.22146,-3.50533 -6.63977,-14.62939 -6.01356,-15.14045 0.27221,-0.22215 15.22676,-4.657163 16.35247,-4.849583 0.37365,-0.0639 1.21096,1.68426 1.86068,3.884743 1.68652,5.71189 6.0851,11.9327 10.50589,14.85824 9.21419,6.09766 26.9155,7.82657 38.53355,3.76362 13.41171,-4.69022 18.99108,-17.77065 12.30781,-28.854833 -3.74096,-6.20438 -8.56422,-8.42487 -32.25267,-14.84821 -22.25195,-6.03382 -31.53815,-12.96869 -35.69602,-26.65757 -8.18546,-26.94886 12.91328,-50.41196009 43.60044,-48.4863904 10.26427,0.6440601 16.82518,2.73106 24.32053,7.73627 5.49788,3.6713394 14.21991,13.2911904 14.21991,15.6836704 0,0.556 -3.10683,3.07681 -6.90406,5.6018 l -6.90406,4.59089 -2.61522,-3.95187 c -6.99316,-10.56738 -21.27124,-15.29512 -34.40925,-11.39355 -15.4359,4.58396 -20.80806,21.05171 -10.29663,31.56314 3.78877,3.78878 4.43279,4.03418 32.62922,12.43318 11.05338,3.29252 17.31678,6.39698 22.67766,11.24022 18.73511,16.92604 14.53239,47.092393 -8.17766,58.697863 -11.14396,5.69487 -29.38648,7.89564 -41.86914,5.05108 z M 38.480322,136.14397 C 21.124602,131.17527 6.8772919,115.99315 2.6194815,97.930177 c -1.22203,-5.18423 -1.51068,-14.69061 -1.52266,-50.14689 l -0.0148,-43.7500004 h 8.5000004 8.5000001 l 0.0148,41.2500004 c 0.0187,52.27584 0.75057,56.060093 12.96533,67.042213 8.12216,7.30252 11.05849,7.96956 37.26989,8.46646 l 22.749977,0.43129 v 8.40502 8.40502 l -23.249997,-0.0712 c -18.97558,-0.0581 -24.37178,-0.39239 -29.35172,-1.81808 z m 381.963748,-0.0921 C 379.49391,125.3162 359.67833,77.356877 380.03339,38.246587 c 4.92969,-9.47192 11.24256,-16.82343 19.51669,-22.72774 C 413.59632,5.4956466 423.75097,3.0332866 451.03987,3.0332866 h 19.04216 v 8.4999994 8.500001 h -17.31634 c -9.52399,0 -19.98649,0.48771 -23.25,1.08379 -18.99517,3.46949 -34.77313,18.95645 -38.88336,38.16621 -0.5884,2.75 -0.5884,2.75 36.43065,2.75 h 37.01905 v 9 9 h -37 c -20.35,0 -37,0.1776 -37,0.39466 0,0.21707 0.90417,3.32204 2.00927,6.89994 2.77949,8.99892 8.84801,17.673523 16.29321,23.290193 11.8179,8.91543 18.04537,10.41521 43.24674,10.41521 h 18.45078 v 8.5 8.5 l -21.25,-0.0551 c -17.42589,-0.0451 -22.53453,-0.39182 -28.38796,-1.92638 z m 177.59739,0.92608 c -1.50283,-0.57478 -6.23874,-5.96991 -11.59431,-13.20816 -11.92928,-16.1229 -33.46378,-45.472533 -51.40251,-70.057123 l -14.46261,-19.82067 -0.259,51.57065 -0.259,51.570643 h -8.51256 -8.51256 l 0.27156,-63.919893 c 0.27156,-63.9198804 0.27156,-63.9198804 2.68149,-66.4846904 1.32546,-1.41064 3.86921,-2.83856 5.65278,-3.17316 6.0338,-1.13195 9.08397,1.46658 21.43729,18.2630204 14.30495,19.45002 57.50466,78.01649 59.80217,81.074683 1.60453,2.13576 1.69783,-0.51567 1.69783,-48.247603 V 4.0380866 l 8.75,-0.002 8.75,-0.003 V 67.517307 c 0,63.484233 0,63.484233 -2.75,66.502493 -3.02455,3.31958 -7.36907,4.45777 -11.29057,2.95793 z m 40.13583,-5.19466 c 1.13635,-2.8875 10.63944,-25.95 21.11799,-51.250003 10.47854,-25.3 21.44976,-51.85 24.38048,-59 6.17371,-15.0618304 9.03693,-18.5000004 15.40627,-18.5000004 7.38233,0 8.50446,1.86569 24.35901,40.5000004 30.71712,74.851403 36.91462,90.060873 37.38594,91.750003 0.44006,1.57707 -0.43936,1.75 -8.89937,1.75 h -9.38768 l -5.38051,-13.98342 -5.3805,-13.98343 -25.21181,-0.26657 -25.21181,-0.26658 3.99392,-8.727467 3.99392,-8.727446 17.28118,-0.27255 17.28119,-0.27254 -10.90026,-27 c -15.64392,-38.75005 -13.35397,-35.65162 -18.07467,-24.45609 -2.19298,5.20085 -10.31967,24.98109 -18.0593,43.95609 -7.73964,18.975003 -15.86149,38.887503 -18.04858,44.250003 l -3.97652,9.75 h -9.36748 -9.36749 z"/>
</svg>
