<svg xmlns="http://www.w3.org/2000/svg" width="200" height="200" viewBox="0 0 200 200">
  <path d="m188.8 112.8c-2.24-2.87-3.77-4.53-4.1-8.5-0.91-11.18-8.68-19.25-20.74-19.94-5.5-0.33-6.56-3.15-11.89-6.42-0.89-0.54-1.82-1-2.79-1.39 4.78-7.77 3.23-17.09-2.82-24.02-2.41-2.91-3.06-4.37-3.4-8.08-0.9-10-8.45-18.45-19.58-19.32-5.58-0.49-6.32-1.81-9.97-5.07-3.59-3.19-6.91-4.41-10.9-4.41h-0.21c-4.63 0-8 1.17-12.43 5.24-3.55 3.33-5.27 3.93-8.97 4.31-10.23 0.93-17.31 8.46-18.23 18.01-0.47 5.01-1.43 6.69-4.36 10.33-5.8 6.84-5.74 16.01-1.43 23.16-5.6 0.55-9.34 3.31-13.25 6.64-2.8 2.58-4.92 3.14-8.92 3.46-10.65 0.82-19.21 9.39-20.2 19.96-0.5 5.42-1.51 6.5-4.58 10.63-6.75 8.27-5.78 19.51 0.97 27.6 2.97 3.71 3.4 4.64 3.82 9.24 1.03 9.97 9.56 18.93 20.95 19.28 4.98 0.26 6.21 1.92 9.32 4.5 4.36 3.57 8.8 5.05 13.47 5.05h0.16c6.21 0 10.86-2.34 15.75-6.54 3.16-2.47 4.68-2.73 8.63-3.18 8.27-0.99 14.9-6.38 17.77-12.55 4.31 6.06 9.9 8.99 17.09 9.34 5.32 0.48 6.29 2.63 10.78 5.65 3.95 2.7 8.21 3.29 12.21 3.29 6.36 0 11.39-3.02 15.75-6.59 3.01-2.16 4.4-2.27 8.35-2.87 10.6-1.41 19.42-10.08 20.16-19.84 0.47-5.05 1.52-6.29 4.53-10.32 6.26-7.8 5.94-18.64-0.94-26.65zm-126.4-56.61c3.32-4.07 4.74-6.57 5.21-11.59 0.75-7.91 6.24-14.38 15.16-15.16 4.98-0.48 7.11-1.79 10.96-5.16 3.6-3.13 6.29-4.21 9.62-4.21 3.75 0 6.45 1.52 9.41 4.21 4.26 3.88 5.99 4.47 11.2 5.05 8.81 0.93 14.4 7.67 15.04 15.94 0.43 4.6 1.35 6.33 4.56 10.4 5.26 6 5.26 13.43 1.57 18.9-1.1-0.19-2.22-0.3-3.36-0.3-4.07 0-7.28 0.99-10.24 2.52 0.22-1.31-0.42-2.89-2.05-3.38l-8.93-3.81c0.42-2.77 0.41-5.09-0.17-7.94l9.27-3.91c2.8-1.2 1.11-5.22-1.85-3.97l-8.75 3.71c-2.1-4.49-4.4-6.71-8.51-9.04l3.83-8.68c1.28-3.13-3.12-4.24-4.31-1.53l-3.44 8.36c-3.02-0.75-5.32-0.8-8.53-0.16l-3.32-8.49c-1.19-2.85-4.98-1.15-3.65 1.93l3.33 8.17c-4.69 2.2-6.78 4.75-8.87 9.28l-7.83-3.58c-2.91-1.37-4.1 3.15-1.8 4.2l8.5 3.71c-0.65 3.02-0.59 5.25 0 8.32l-8.29 3.47c-2.41 1.02-1.32 5.35 1.9 3.98l7.89-3.07c2.12 4.02 3.9 5.59 7.8 8.06l-2.09 6.36c-2.54-1.2-5.25-1.87-8.31-2.02-5.5-0.49-6.56-3.06-11.59-6.33-2.41-1.51-5.06-2.6-7.91-3.13-5.75-6.25-6.85-14.1-1.45-21.11zm40.15-5.62c8.52 0 14.47 7.38 14.47 15.39 0 8.05-7.02 14.1-14.2 14-8.41-0.16-14.1-6.67-14.1-13.79 0-8.42 6.31-15.6 13.83-15.6zm3.89 35.48c-4.15 2.63-6.74 6.05-8.2 9.7-0.92-1.47-2.03-2.81-3.31-4l2.86-7.59c2.7 0.59 5.04 0.54 8.36-0.15l0.29 2.04zm-8.51 66.65c-1.07 8.66-8 15.9-15.78 16.38-5.31 0.49-7.5 1.85-11.5 5.37-4 3.33-7.38 4.3-11.12 4.3-4.64 0-8.18-2.1-12.08-5.37-4-3.33-5.73-4.15-10.99-4.64-9.27-0.64-15.68-7.48-16.7-15.49-0.64-5.84-1.71-6.82-5.35-11.7-6.57-7.8-5.46-16.16 0.18-22.68 3.74-4.53 4.61-6.1 5.16-12.1 0.97-8.01 7.38-14.85 15.9-15.49 5.7-0.49 8.11-1.8 12.5-5.42 4.1-3.47 7.07-4.73 11.22-4.73 4.39 0 7.5 1.52 11.19 4.54 4.69 3.87 6.42 4.51 12.01 5.1 8.71 0.93 14.87 7.45 15.3 15.97 0.42 5.37 1.61 7.21 5.2 11.91 5.89 7.24 5.25 15.92-0.34 23.1-3.74 4.6-4.27 6.22-4.8 10.95zm12.88-69.52-0.32-0.11-0.23-1.57c4.54-2.2 6.69-4.71 9.04-8.1l8.6 3.76c-3.95 3.02-6.25 5.97-13.43 6.33-1.29 0.11-2.49 0.36-3.66-0.31zm74.77 54.04c-3.89 5.06-5.08 6.63-5.61 12.53-0.87 8.36-8.21 15.31-16.62 15.95-5.26 0.59-6.45 1.57-11.09 5.28-4.49 3.72-7.51 3.98-11.31 3.98-4.79 0-8.28-1.74-12.23-5.21-3.95-3.32-6.03-3.96-11.43-4.6-7.62-0.82-13.56-6.19-14.8-10.89 0.26-5.01 1.24-7.01 4.93-11.4 1.13-1.51 2.04-3.02 2.74-4.54 0.53 0.63 1.46 1.07 2.65 0.48l8.87-3.72c2.35 4.87 4.99 8.14 10.64 10.61l-3.65 8.67c-1.19 2.97 3.02 4 4.21 1.42l3.69-8.94c3.38 0.79 6.02 0.63 9.4-0.06l3.79 9.05c1.19 2.76 5.14 0.91 3.67-2.35l-3.64-8.32c4.88-2.3 7.47-5.37 9.87-9.81l9.26 4.13c2.97 1.31 4.08-3.23 1.44-4.39l-9.26-4.13c0.53-3.07 0.63-5.25 0-8.82l8.93-3.97c2.91-1.31 1.39-5.38-1.42-4.18l-9.32 4.13c-2.54-5.32-4.84-7.6-9.72-9.94l3.79-9.33c1.29-3.13-2.92-4.39-4.21-1.58l-4.16 9.33c-3.21-0.69-5.66-0.75-8.77-0.1l-3.69-9.18c-1.14-2.96-5.3-1.55-3.97 1.82l3.64 8.83c-5.03 2.24-7.27 4.78-9.97 9.75l-8.87-3.76c-3.27-1.42-4.61 3.02-1.96 4.32l9.26 3.81c-0.59 3.42-0.59 5.66 0 8.93l-9.48 4.07c-0.14 0.07-0.26 0.16-0.38 0.24 1.86-7.06-0.37-14.38-4.72-19.5-3.33-3.98-3.75-6.13-4.22-12.13-0.1-1.06-0.33-2.1-0.41-2.75 1.8-7.73 8.41-13.1 16.58-13.59 5.02-0.59 7.32-2.21 11.43-5.92 3.69-3.18 7.23-3.67 10.55-3.67 4.34 0 7.5 1.42 11.25 4.49 4.83 4.07 6.77 5.05 12.77 5.53 8.92 0.7 15.29 7.98 15.93 16 0.59 6.21 1.27 7.52 5.37 12.58 5.6 6.63 5.6 14.21 0.25 20.85zm-44.79-27.06c9.21 0 15.57 7.64 15.57 16.54 0 8.96-7.57 15.95-15.68 15.85-9.21-0.16-15.52-7.59-15.52-15.18 0-9.2 7.17-17.21 15.63-17.21z" fill="#8C6A3C"/>
  <path d="m78.82 107.6-6.93 7.29c-1.42-1.31-2.34-1.95-3.77-2.82l3.44-9.86c1.02-3.07-3.24-4.43-4.43-1.46l-3.69 9c-3.32-0.74-5.73-0.74-9.11 0l-4.05-9.5c-1.43-3.13-5.59-1.16-3.91 2.46l3.22 8.36c-1.98 1.03-3.27 1.82-4.56 3.08l-6.2-6.69c-2.45-2.7-5.04 1.07-3.01 3.31l6.01 6.57c-1.02 1.41-1.62 2.25-2.2 3.56l-8.87-3.43c-3.02-1.15-3.94 3.97-1.35 4.85l8.92 3.27c-0.74 3.23-0.74 5.41 0 9.23l-9.15 3.71c-2.75 1.15-1.33 5.44 1.63 4.29l9.1-3.82c0.69 1.57 1.44 2.74 2.78 4.05l-6.41 6.95c-2.09 2.28 0.93 4.94 3.17 2.75l6.76-6.79c1.68 1.26 2.65 1.85 3.84 2.38l-3.16 9.19c-1.14 3.31 3.07 3.96 3.76 1.81l3.9-9.38c3.38 0.69 5.93 0.58 9.2-0.15l3.9 9.38c1.24 2.85 5.09 0.93 3.9-2.25l-3.54-8.12c1.93-0.98 3.02-1.77 4.45-3.08l6.56 6.85c2.14 2.29 4.78-1.14 2.85-3.33l-6.93-7.19c0.97-1.52 1.45-2.31 2.09-3.72l9.48 4.02c2.85 1.2 3.96-3.4 1.42-4.45l-9.16-3.61c0.64-3.57 0.59-5.54 0-8.97l9.48-3.76c2.7-1.1 1.46-5.29-1.7-4.04l-8.82 3.52c-0.74-1.74-1.33-2.82-2.47-4.13l6.98-7.48c1.84-2.19-1.49-3.98-3.42-1.85zm-20.35 38.36c-8.93-0.16-15.24-7.74-15.24-15.44 0-9.2 7.12-16.78 15.53-16.78 8.66 0 15.78 7.53 15.78 16.63 0 8.57-7.49 15.69-16.07 15.59z" fill="#8C6A3C"/>
</svg>
