<svg xmlns="http://www.w3.org/2000/svg" width="250" height="250" viewBox="0 0 250 250">
  <path d="m237 131.7c-6.15-5.91-16.77-4.74-21.66-2.55l1.96 4.64c4.54-2.04 12.6-3.08 16.62 1.34 3.34 3.73 4.25 9.13 3.21 14.84-2.21 12.04-13.27 28.92-29.87 34.21-5.16 1.72-10.55 2.37-15.77 3.01-8.69 1.08-17.69 2.2-26.62 7.75-4.93 3.15-9.11 6.43-12.81 9.41-5.41 4.31-10.53 8.39-18.35 10.16-12.46 2.99-22.88 0.53-30-2.26-9.79-3.78-16.51-10.01-17.22-16.99-0.45-4.45 2.13-9.24 7.51-13.91l-3.29-3.75c-6.58 5.8-9.67 12.28-9.05 18.3 0.99 9.45 9.57 17.06 20.07 21.14 6.7 2.7 13.56 3.99 20.51 3.99 4.67 0 9.37-0.71 13.99-2.12 8.62-2.32 14.26-6.8 20.24-11.56 3.68-3 7.49-6.09 12.11-9.04 7.82-4.84 15.88-5.86 24.41-6.92 5.46-0.68 11.09-1.38 16.74-3.25 18.58-6.02 30.67-24.24 33.23-37.27 1.37-7.17-0.33-13.99-5.96-19.17z" fill="#8C6A3C"/>
  <path d="m18.04 180.8c-3.73 0-7.2-1.85-9.46-5.24-2.16-3.33-2.47-7.23-0.81-11.18 5.99-14.08 5.35-17.85 3.65-25.27-5.31-23.26-5.37-44.56-0.21-68.02 2.44-10.24 0.97-13.68-2.16-20.99-0.63-1.57-1.38-3.39-2.18-5.47-1.86-4.84-0.29-10.54 3.92-13.54 4.37-3.19 9.35-3.34 16.02-0.72 10 3.99 14.62 5.4 23.31 4.27 33.22-4.42 58.77-6.39 109.8-0.69 9.26 1.41 14.57 0.15 26.14-4.16 2.61-1.08 5.74-1.89 8.82-1.49 4.15 0.46 7.72 2.94 9.43 6.76 1.86 4.12 1.5 8.39-1.04 13.92-4.62 10.35-4.46 13.15-2.4 22.42 2.25 9.45 2.77 16.42 3.08 26.56 0.05 1.97-2.35 2.94-3.92 2.03-0.85-0.51-1.16-1.37-1.16-2.23-0.31-9.74-0.79-16.41-3.04-25.54-2.25-9.94-2.36-14.26 2.88-25.77 2.05-4.47 1.9-7.32 0.85-9.7-1.96-3.83-6.14-4.03-11.45-1.8-11.31 4.43-17.69 6.05-29.01 4.38-50.04-6.37-73.91-3.51-108.3 0.51-10.35 1.27-16.24-0.66-26.03-4.58-5.46-2.18-8.39-1.57-10.79 0.41-2.49 1.93-3.39 5.44-2.19 8.59 0.75 2.03 1.49 3.8 2.12 5.37 3.37 7.82 4.98 12.35 2.37 23.12-5.08 22.45-5.03 42.9 0.1 65.35 2.1 8.89 2.31 13.78-4.01 28.45-1.56 3.63-0.62 6.23 0.28 7.7 1.91 3.04 5.53 3.14 9.21 2.23 2.92-0.76 5.31-1.67 7.47-2.53 6.52-2.65 11.6-4.32 22.27-3.57 7.05 0.97 14.25 2.19 25.82 2.45 1.85 0.05 2.65 1.52 2.6 2.73-0.05 1.62-1.47 2.38-2.77 2.33-10.63-0.25-18.19-1.52-26.25-2.53-9.47-0.91-13.35 0.61-19.62 3.03-2.25 0.86-4.8 1.88-8.07 2.74-1.76-0.51-3.56-0.33-5.33-0.33z" fill="#8C6A3C"/>
  <path d="m26.41 146.7c4.78-16.89 9.6-38.7-0.35-83.33-0.42-2.03 0.43-3.45 1.99-3.75 1.56-0.31 2.76 0.6 3.18 2.43 7.72 29.76 6.48 54.32-1.18 85.36-0.59 2.43-4.42 2.33-3.64-0.71z" fill="#8C6A3C"/>
  <path d="m102.2 143c23.61-18.83 52.68-31.07 84.64-33.88 13.01-1.17 21.94 2.41 29.15 11.45 11.78 14.88 10.32 34.48-5.18 45.93-10.05 7.03-22.71 6.48-31.83 1.58-6.09-2.89-9.92-4.92-14.34-4.46-8.38 0.86-9.89 9.71-13.52 17.63-6.67 14.67-20.16 20.58-33.36 18.86-16.93-1.62-28.56-17.06-27.71-31.32 0.48-10.29 5.1-19.62 12.15-25.79z" fill="none" stroke="#8C6A3C" stroke-miterlimit="10" stroke-width="5.3"/>
</svg>
